<mxfile host="app.diagrams.net" agent="Mozilla/5.0 (Windows NT 10.0; Win64; x64) AppleWebKit/537.36 (KHTML, like Gecko) Chrome/134.0.0.0 Safari/537.36" version="26.2.4">
  <diagram name="Modelo Conceitual" id="nwTd1Yv_OmfyYsyIaaCv">
    <mxGraphModel dx="1044" dy="562" grid="1" gridSize="10" guides="1" tooltips="1" connect="1" arrows="1" fold="1" page="1" pageScale="1" pageWidth="827" pageHeight="1169" math="0" shadow="0">
      <root>
        <mxCell id="0" />
        <mxCell id="1" parent="0" />
        <mxCell id="opBd1IzcPt9YzCX3VYzt-1" value="Clientes" style="whiteSpace=wrap;html=1;align=center;" vertex="1" parent="1">
          <mxGeometry x="30" y="260" width="100" height="80" as="geometry" />
        </mxCell>
        <mxCell id="opBd1IzcPt9YzCX3VYzt-2" value="Produtos" style="whiteSpace=wrap;html=1;align=center;" vertex="1" parent="1">
          <mxGeometry x="290" y="60" width="100" height="80" as="geometry" />
        </mxCell>
        <mxCell id="opBd1IzcPt9YzCX3VYzt-3" value="Pedidos" style="whiteSpace=wrap;html=1;align=center;" vertex="1" parent="1">
          <mxGeometry x="600" y="260" width="100" height="80" as="geometry" />
        </mxCell>
        <mxCell id="opBd1IzcPt9YzCX3VYzt-4" value="Pagamentos" style="whiteSpace=wrap;html=1;align=center;" vertex="1" parent="1">
          <mxGeometry x="610" y="440" width="100" height="80" as="geometry" />
        </mxCell>
        <mxCell id="opBd1IzcPt9YzCX3VYzt-13" style="edgeStyle=orthogonalEdgeStyle;rounded=0;orthogonalLoop=1;jettySize=auto;html=1;entryX=0;entryY=0.5;entryDx=0;entryDy=0;endArrow=none;startFill=0;" edge="1" parent="1" source="opBd1IzcPt9YzCX3VYzt-11" target="opBd1IzcPt9YzCX3VYzt-3">
          <mxGeometry relative="1" as="geometry" />
        </mxCell>
        <mxCell id="opBd1IzcPt9YzCX3VYzt-23" style="edgeStyle=orthogonalEdgeStyle;rounded=0;orthogonalLoop=1;jettySize=auto;html=1;entryX=1;entryY=0.5;entryDx=0;entryDy=0;endArrow=none;startFill=0;" edge="1" parent="1" source="opBd1IzcPt9YzCX3VYzt-11" target="opBd1IzcPt9YzCX3VYzt-1">
          <mxGeometry relative="1" as="geometry" />
        </mxCell>
        <mxCell id="opBd1IzcPt9YzCX3VYzt-11" value="Possui" style="shape=rhombus;perimeter=rhombusPerimeter;whiteSpace=wrap;html=1;align=center;" vertex="1" parent="1">
          <mxGeometry x="280" y="270" width="120" height="60" as="geometry" />
        </mxCell>
        <mxCell id="opBd1IzcPt9YzCX3VYzt-17" style="edgeStyle=orthogonalEdgeStyle;rounded=0;orthogonalLoop=1;jettySize=auto;html=1;entryX=0.596;entryY=1.042;entryDx=0;entryDy=0;entryPerimeter=0;endArrow=none;startFill=0;" edge="1" parent="1" source="opBd1IzcPt9YzCX3VYzt-4" target="opBd1IzcPt9YzCX3VYzt-3">
          <mxGeometry relative="1" as="geometry" />
        </mxCell>
        <mxCell id="opBd1IzcPt9YzCX3VYzt-24" value="(1, 1)" style="text;html=1;align=center;verticalAlign=middle;resizable=0;points=[];autosize=1;strokeColor=none;fillColor=none;" vertex="1" parent="1">
          <mxGeometry x="130" y="260" width="50" height="30" as="geometry" />
        </mxCell>
        <mxCell id="opBd1IzcPt9YzCX3VYzt-25" value="(1, 1)" style="text;html=1;align=center;verticalAlign=middle;resizable=0;points=[];autosize=1;strokeColor=none;fillColor=none;" vertex="1" parent="1">
          <mxGeometry x="710" y="440" width="50" height="30" as="geometry" />
        </mxCell>
        <mxCell id="opBd1IzcPt9YzCX3VYzt-26" value="(1, 1)" style="text;html=1;align=center;verticalAlign=middle;resizable=0;points=[];autosize=1;strokeColor=none;fillColor=none;" vertex="1" parent="1">
          <mxGeometry x="700" y="311" width="50" height="30" as="geometry" />
        </mxCell>
        <mxCell id="opBd1IzcPt9YzCX3VYzt-27" value="(1, N)" style="text;html=1;align=center;verticalAlign=middle;resizable=0;points=[];autosize=1;strokeColor=none;fillColor=none;" vertex="1" parent="1">
          <mxGeometry x="550" y="260" width="50" height="30" as="geometry" />
        </mxCell>
      </root>
    </mxGraphModel>
  </diagram>
</mxfile>
